<?xml version="1.0" encoding="UTF-8"?>
<svg xmlns="http://www.w3.org/2000/svg" xmlns:xlink="http://www.w3.org/1999/xlink" width="680pt" height="210pt" viewBox="205 430 680 210">
<defs>
<g>
<g id="glyph-0-0">
<path d="M 19.75 -15.546875 C 19.75 -13.804688 19.210938 -12.484375 18.140625 -11.578125 C 17.066406 -10.679688 15.800781 -10.101562 14.34375 -9.84375 C 12.894531 -9.59375 11.367188 -9.46875 9.765625 -9.46875 L 8.359375 -9.46875 L 8.359375 -3.9375 C 8.359375 -3.3125 8.425781 -2.828125 8.5625 -2.484375 C 8.695312 -2.140625 8.988281 -1.878906 9.4375 -1.703125 C 9.882812 -1.523438 10.566406 -1.4375 11.484375 -1.4375 L 11.484375 0 L 0.828125 0 L 0.828125 -1.4375 C 1.734375 -1.4375 2.398438 -1.53125 2.828125 -1.71875 C 3.265625 -1.90625 3.546875 -2.171875 3.671875 -2.515625 C 3.804688 -2.859375 3.875 -3.332031 3.875 -3.9375 L 3.875 -17.3125 C 3.875 -17.914062 3.8125 -18.382812 3.6875 -18.71875 C 3.5625 -19.0625 3.28125 -19.328125 2.84375 -19.515625 C 2.40625 -19.710938 1.734375 -19.8125 0.828125 -19.8125 L 0.828125 -21.28125 L 6.875 -21.4375 C 7.1875 -21.445312 7.523438 -21.453125 7.890625 -21.453125 C 8.265625 -21.460938 8.5625 -21.46875 8.78125 -21.46875 C 9 -21.476562 9.320312 -21.484375 9.75 -21.484375 C 10.28125 -21.484375 10.675781 -21.476562 10.9375 -21.46875 C 12.175781 -21.414062 13.367188 -21.296875 14.515625 -21.109375 C 15.660156 -20.921875 16.816406 -20.390625 17.984375 -19.515625 C 19.160156 -18.648438 19.75 -17.328125 19.75 -15.546875 Z M 14.9375 -15.515625 C 14.9375 -17.203125 14.441406 -18.328125 13.453125 -18.890625 C 12.472656 -19.460938 11.179688 -19.75 9.578125 -19.75 C 9.285156 -19.75 8.878906 -19.738281 8.359375 -19.71875 L 8.359375 -11.203125 L 9.796875 -11.203125 C 11.328125 -11.203125 12.566406 -11.460938 13.515625 -11.984375 C 14.460938 -12.515625 14.9375 -13.691406 14.9375 -15.515625 Z M 14.9375 -15.515625 "/>
</g>
<g id="glyph-0-1">
<path d="M 16.703125 -6.4375 C 16.703125 -5.019531 16.359375 -3.785156 15.671875 -2.734375 C 14.984375 -1.679688 14.050781 -0.875 12.875 -0.3125 C 11.707031 0.238281 10.425781 0.515625 9.03125 0.515625 C 7.71875 0.515625 6.472656 0.257812 5.296875 -0.25 C 4.128906 -0.757812 3.171875 -1.535156 2.421875 -2.578125 C 1.679688 -3.617188 1.3125 -4.894531 1.3125 -6.40625 C 1.3125 -8.664062 2.082031 -10.378906 3.625 -11.546875 C 5.164062 -12.722656 7 -13.3125 9.125 -13.3125 C 10.707031 -13.3125 12.070312 -13 13.21875 -12.375 C 14.363281 -11.75 15.226562 -10.910156 15.8125 -9.859375 C 16.40625 -8.804688 16.703125 -7.664062 16.703125 -6.4375 Z M 12.390625 -6.53125 C 12.390625 -8.300781 12.15625 -9.632812 11.6875 -10.53125 C 11.21875 -11.425781 10.304688 -11.875 8.953125 -11.875 C 8.085938 -11.875 7.410156 -11.675781 6.921875 -11.28125 C 6.441406 -10.894531 6.101562 -10.289062 5.90625 -9.46875 C 5.71875 -8.65625 5.625 -7.597656 5.625 -6.296875 C 5.625 -4.691406 5.835938 -3.394531 6.265625 -2.40625 C 6.691406 -1.414062 7.625 -0.921875 9.0625 -0.921875 C 10.007812 -0.921875 10.726562 -1.191406 11.21875 -1.734375 C 11.71875 -2.285156 12.035156 -2.960938 12.171875 -3.765625 C 12.316406 -4.578125 12.390625 -5.5 12.390625 -6.53125 Z M 12.390625 -6.53125 "/>
</g>
<g id="glyph-0-2">
<path d="M 9.40625 0 L 0.421875 0 L 0.421875 -1.4375 L 1.09375 -1.4375 C 1.695312 -1.4375 2.132812 -1.519531 2.40625 -1.6875 C 2.6875 -1.851562 2.859375 -2.085938 2.921875 -2.390625 C 2.984375 -2.691406 3.015625 -3.132812 3.015625 -3.71875 L 3.015625 -17.03125 C 3.015625 -17.78125 2.835938 -18.257812 2.484375 -18.46875 C 2.140625 -18.675781 1.453125 -18.78125 0.421875 -18.78125 L 0.421875 -20.21875 L 7.046875 -21.5625 L 7.046875 -3.71875 C 7.046875 -3.132812 7.070312 -2.691406 7.125 -2.390625 C 7.1875 -2.097656 7.351562 -1.863281 7.625 -1.6875 C 7.90625 -1.519531 8.347656 -1.4375 8.953125 -1.4375 L 9.40625 -1.4375 Z M 9.40625 0 "/>
</g>
<g id="glyph-0-3">
<path d="M 7.484375 -19.421875 C 7.484375 -18.796875 7.257812 -18.257812 6.8125 -17.8125 C 6.375 -17.375 5.84375 -17.15625 5.21875 -17.15625 C 4.601562 -17.15625 4.066406 -17.378906 3.609375 -17.828125 C 3.160156 -18.285156 2.9375 -18.816406 2.9375 -19.421875 C 2.9375 -20.046875 3.160156 -20.582031 3.609375 -21.03125 C 4.054688 -21.476562 4.59375 -21.703125 5.21875 -21.703125 C 5.851562 -21.703125 6.390625 -21.484375 6.828125 -21.046875 C 7.265625 -20.609375 7.484375 -20.066406 7.484375 -19.421875 Z M 9.25 0 L 0.765625 0 L 0.765625 -1.4375 L 1.21875 -1.4375 C 1.820312 -1.4375 2.257812 -1.519531 2.53125 -1.6875 C 2.8125 -1.851562 2.984375 -2.085938 3.046875 -2.390625 C 3.109375 -2.691406 3.140625 -3.132812 3.140625 -3.71875 L 3.140625 -8.359375 C 3.140625 -9.003906 3.097656 -9.460938 3.015625 -9.734375 C 2.941406 -10.003906 2.738281 -10.203125 2.40625 -10.328125 C 2.082031 -10.453125 1.535156 -10.519531 0.765625 -10.53125 L 0.765625 -11.96875 L 7.171875 -13.3125 L 7.171875 -3.71875 C 7.171875 -2.84375 7.28125 -2.242188 7.5 -1.921875 C 7.71875 -1.597656 8.300781 -1.4375 9.25 -1.4375 Z M 9.25 0 "/>
</g>
<g id="glyph-0-4">
<path d="M 14.90625 -3.171875 C 13.644531 -0.710938 11.617188 0.515625 8.828125 0.515625 C 7.523438 0.515625 6.289062 0.25 5.125 -0.28125 C 3.96875 -0.8125 3.035156 -1.582031 2.328125 -2.59375 C 1.628906 -3.601562 1.28125 -4.785156 1.28125 -6.140625 C 1.28125 -7.078125 1.46875 -7.972656 1.84375 -8.828125 C 2.226562 -9.679688 2.78125 -10.453125 3.5 -11.140625 C 4.21875 -11.828125 5.066406 -12.359375 6.046875 -12.734375 C 7.035156 -13.117188 8.09375 -13.3125 9.21875 -13.3125 C 10.65625 -13.3125 11.921875 -13.023438 13.015625 -12.453125 C 14.109375 -11.890625 14.65625 -11.109375 14.65625 -10.109375 C 14.65625 -9.648438 14.484375 -9.257812 14.140625 -8.9375 C 13.796875 -8.613281 13.398438 -8.453125 12.953125 -8.453125 C 12.523438 -8.453125 12.195312 -8.550781 11.96875 -8.75 C 11.738281 -8.945312 11.585938 -9.148438 11.515625 -9.359375 C 11.441406 -9.566406 11.335938 -9.9375 11.203125 -10.46875 C 11.066406 -10.976562 10.84375 -11.335938 10.53125 -11.546875 C 10.21875 -11.765625 9.78125 -11.875 9.21875 -11.875 C 8.269531 -11.875 7.425781 -11.519531 6.6875 -10.8125 C 5.957031 -10.113281 5.59375 -8.800781 5.59375 -6.875 C 5.59375 -5.84375 5.738281 -4.894531 6.03125 -4.03125 C 6.332031 -3.164062 6.800781 -2.476562 7.4375 -1.96875 C 8.082031 -1.46875 8.867188 -1.21875 9.796875 -1.21875 C 10.828125 -1.21875 11.613281 -1.472656 12.15625 -1.984375 C 12.695312 -2.492188 13.175781 -3.09375 13.59375 -3.78125 Z M 14.90625 -3.171875 "/>
</g>
<g id="glyph-0-5">
<path d="M 16.609375 -11.359375 C 16.160156 -11.296875 15.8125 -11.179688 15.5625 -11.015625 C 15.3125 -10.847656 15.082031 -10.585938 14.875 -10.234375 C 14.675781 -9.890625 14.316406 -9.1875 13.796875 -8.125 L 9.21875 1.375 C 8.195312 3.46875 7.5 4.859375 7.125 5.546875 C 6.757812 6.242188 6.34375 6.796875 5.875 7.203125 C 5.40625 7.609375 4.820312 7.8125 4.125 7.8125 C 3.644531 7.8125 3.226562 7.664062 2.875 7.375 C 2.519531 7.082031 2.34375 6.710938 2.34375 6.265625 C 2.34375 5.628906 2.554688 5.164062 2.984375 4.875 C 3.421875 4.59375 3.984375 4.351562 4.671875 4.15625 C 5.597656 3.882812 6.304688 3.390625 6.796875 2.671875 C 7.285156 1.953125 7.707031 1.164062 8.0625 0.3125 L 2.109375 -10.171875 C 1.828125 -10.679688 1.570312 -11.003906 1.34375 -11.140625 C 1.113281 -11.285156 0.796875 -11.359375 0.390625 -11.359375 L 0.390625 -12.796875 L 7.96875 -12.796875 L 7.96875 -11.359375 L 7.484375 -11.359375 C 6.765625 -11.359375 6.40625 -11.1875 6.40625 -10.84375 C 6.40625 -10.632812 6.550781 -10.273438 6.84375 -9.765625 L 10.140625 -3.96875 L 12.578125 -8.921875 C 12.921875 -9.628906 13.09375 -10.113281 13.09375 -10.375 C 13.09375 -10.6875 12.9375 -10.925781 12.625 -11.09375 C 12.320312 -11.269531 11.960938 -11.359375 11.546875 -11.359375 L 11.546875 -12.796875 L 16.609375 -12.796875 Z M 16.609375 -11.359375 "/>
</g>
<g id="glyph-0-6">
</g>
<g id="glyph-0-7">
<path d="M 23.6875 0 L 18.015625 0 C 17.804688 -0.226562 17.546875 -0.5625 17.234375 -1 C 16.929688 -1.4375 16.597656 -1.945312 16.234375 -2.53125 C 15.867188 -3.125 15.566406 -3.613281 15.328125 -4 L 13.890625 -6.375 C 13.242188 -7.4375 12.753906 -8.160156 12.421875 -8.546875 C 12.097656 -8.941406 11.722656 -9.191406 11.296875 -9.296875 C 10.878906 -9.410156 10.164062 -9.46875 9.15625 -9.46875 L 8.359375 -9.46875 L 8.359375 -3.9375 C 8.359375 -3.351562 8.421875 -2.882812 8.546875 -2.53125 C 8.671875 -2.175781 8.960938 -1.90625 9.421875 -1.71875 C 9.890625 -1.53125 10.566406 -1.4375 11.453125 -1.4375 L 11.453125 0 L 0.828125 0 L 0.828125 -1.4375 C 2.117188 -1.4375 2.945312 -1.625 3.3125 -2 C 3.6875 -2.375 3.875 -3.019531 3.875 -3.9375 L 3.875 -17.3125 C 3.875 -18.21875 3.691406 -18.859375 3.328125 -19.234375 C 2.972656 -19.617188 2.140625 -19.8125 0.828125 -19.8125 L 0.828125 -21.28125 L 5.734375 -21.4375 C 6.109375 -21.457031 6.535156 -21.472656 7.015625 -21.484375 C 7.503906 -21.492188 7.957031 -21.5 8.375 -21.5 C 8.695312 -21.5 9.234375 -21.488281 9.984375 -21.46875 C 11.035156 -21.4375 12.019531 -21.375 12.9375 -21.28125 C 13.851562 -21.1875 14.578125 -21.066406 15.109375 -20.921875 C 15.890625 -20.722656 16.628906 -20.394531 17.328125 -19.9375 C 18.035156 -19.476562 18.609375 -18.875 19.046875 -18.125 C 19.492188 -17.375 19.71875 -16.503906 19.71875 -15.515625 C 19.71875 -14.804688 19.5625 -14.117188 19.25 -13.453125 C 18.945312 -12.785156 18.453125 -12.191406 17.765625 -11.671875 C 17.085938 -11.148438 16.191406 -10.738281 15.078125 -10.4375 C 15.835938 -9.988281 16.484375 -9.429688 17.015625 -8.765625 C 17.546875 -8.109375 18.378906 -6.894531 19.515625 -5.125 C 20.171875 -4.113281 20.710938 -3.347656 21.140625 -2.828125 C 21.566406 -2.316406 21.957031 -1.96875 22.3125 -1.78125 C 22.675781 -1.601562 23.132812 -1.488281 23.6875 -1.4375 Z M 14.90625 -15.546875 C 14.90625 -17.234375 14.390625 -18.351562 13.359375 -18.90625 C 12.335938 -19.457031 11 -19.734375 9.34375 -19.734375 C 9.113281 -19.734375 8.929688 -19.726562 8.796875 -19.71875 C 8.671875 -19.71875 8.523438 -19.71875 8.359375 -19.71875 L 8.359375 -11.203125 L 9.34375 -11.203125 C 10.914062 -11.203125 12.234375 -11.457031 13.296875 -11.96875 C 14.367188 -12.476562 14.90625 -13.671875 14.90625 -15.546875 Z M 14.90625 -15.546875 "/>
</g>
<g id="glyph-0-8">
<path d="M 15.203125 -6.875 L 5.59375 -6.875 C 5.601562 -6.675781 5.628906 -6.253906 5.671875 -5.609375 C 5.722656 -4.960938 5.867188 -4.300781 6.109375 -3.625 C 6.359375 -2.945312 6.78125 -2.375 7.375 -1.90625 C 7.976562 -1.445312 8.785156 -1.21875 9.796875 -1.21875 C 10.347656 -1.21875 11.015625 -1.359375 11.796875 -1.640625 C 12.578125 -1.921875 13.253906 -2.460938 13.828125 -3.265625 L 15.046875 -2.4375 C 13.816406 -0.46875 11.863281 0.515625 9.1875 0.515625 C 7.988281 0.515625 6.894531 0.34375 5.90625 0 C 4.925781 -0.34375 4.09375 -0.820312 3.40625 -1.4375 C 2.71875 -2.050781 2.191406 -2.773438 1.828125 -3.609375 C 1.460938 -4.441406 1.28125 -5.335938 1.28125 -6.296875 C 1.28125 -7.554688 1.582031 -8.722656 2.1875 -9.796875 C 2.800781 -10.867188 3.675781 -11.722656 4.8125 -12.359375 C 5.945312 -12.992188 7.242188 -13.3125 8.703125 -13.3125 C 10.128906 -13.3125 11.332031 -13.003906 12.3125 -12.390625 C 13.300781 -11.773438 14.03125 -10.976562 14.5 -10 C 14.96875 -9.019531 15.203125 -7.976562 15.203125 -6.875 Z M 11.328125 -8.3125 C 11.328125 -10.6875 10.390625 -11.875 8.515625 -11.875 C 7.609375 -11.875 6.910156 -11.546875 6.421875 -10.890625 C 5.941406 -10.234375 5.675781 -9.375 5.625 -8.3125 Z M 11.328125 -8.3125 "/>
</g>
<g id="glyph-0-9">
<path d="M 14.296875 -3.71875 C 14.296875 -2.820312 14.023438 -2.054688 13.484375 -1.421875 C 12.953125 -0.785156 12.21875 -0.304688 11.28125 0.015625 C 10.351562 0.347656 9.28125 0.515625 8.0625 0.515625 C 7.238281 0.515625 6.410156 0.429688 5.578125 0.265625 C 4.742188 0.109375 4.015625 -0.128906 3.390625 -0.453125 L 2.78125 0.421875 L 1.5625 0.421875 L 1.40625 -3.640625 L 2.71875 -3.640625 C 2.945312 -2.941406 3.472656 -2.3125 4.296875 -1.75 C 5.117188 -1.195312 6.3125 -0.921875 7.875 -0.921875 C 8.269531 -0.921875 8.695312 -0.945312 9.15625 -1 C 9.613281 -1.0625 10.050781 -1.222656 10.46875 -1.484375 C 10.894531 -1.742188 11.109375 -2.144531 11.109375 -2.6875 C 11.109375 -3.15625 10.890625 -3.492188 10.453125 -3.703125 C 10.023438 -3.921875 9.21875 -4.179688 8.03125 -4.484375 C 6.59375 -4.847656 5.414062 -5.191406 4.5 -5.515625 C 3.582031 -5.847656 2.804688 -6.320312 2.171875 -6.9375 C 1.535156 -7.550781 1.21875 -8.34375 1.21875 -9.3125 C 1.21875 -10.539062 1.78125 -11.515625 2.90625 -12.234375 C 4.039062 -12.953125 5.523438 -13.3125 7.359375 -13.3125 C 8.503906 -13.3125 9.421875 -13.21875 10.109375 -13.03125 C 10.796875 -12.84375 11.375 -12.640625 11.84375 -12.421875 L 12.21875 -13.21875 L 13.46875 -13.21875 L 13.46875 -9.59375 L 12.1875 -9.59375 C 12.070312 -10.019531 11.8125 -10.410156 11.40625 -10.765625 C 11 -11.117188 10.457031 -11.390625 9.78125 -11.578125 C 9.113281 -11.773438 8.335938 -11.875 7.453125 -11.875 C 6.722656 -11.875 5.992188 -11.796875 5.265625 -11.640625 C 4.546875 -11.484375 4.1875 -11.113281 4.1875 -10.53125 C 4.1875 -10.289062 4.253906 -10.09375 4.390625 -9.9375 C 4.535156 -9.78125 4.78125 -9.632812 5.125 -9.5 C 5.46875 -9.363281 6.070312 -9.1875 6.9375 -8.96875 C 7.800781 -8.75 8.316406 -8.617188 8.484375 -8.578125 C 10.179688 -8.148438 11.570312 -7.625 12.65625 -7 C 13.75 -6.375 14.296875 -5.28125 14.296875 -3.71875 Z M 14.296875 -3.71875 "/>
</g>
<g id="glyph-0-10">
<path d="M 17.34375 -3.296875 C 17.34375 -2.503906 17.179688 -1.828125 16.859375 -1.265625 C 16.535156 -0.710938 16.097656 -0.300781 15.546875 -0.03125 C 15.003906 0.226562 14.390625 0.359375 13.703125 0.359375 C 12.828125 0.359375 12.097656 0.15625 11.515625 -0.25 C 10.929688 -0.664062 10.582031 -1.160156 10.46875 -1.734375 C 8.726562 -0.335938 6.976562 0.359375 5.21875 0.359375 C 4.09375 0.359375 3.171875 0.0859375 2.453125 -0.453125 C 1.734375 -1.003906 1.375 -1.726562 1.375 -2.625 C 1.375 -3.363281 1.566406 -4.03125 1.953125 -4.625 C 2.335938 -5.226562 2.898438 -5.765625 3.640625 -6.234375 C 4.390625 -6.703125 5.28125 -7.113281 6.3125 -7.46875 C 7.34375 -7.832031 8.628906 -8.210938 10.171875 -8.609375 L 10.171875 -9.5 C 10.171875 -10.238281 9.992188 -10.816406 9.640625 -11.234375 C 9.296875 -11.660156 8.65625 -11.875 7.71875 -11.875 C 6.914062 -11.875 6.335938 -11.707031 5.984375 -11.375 C 5.628906 -11.039062 5.394531 -10.535156 5.28125 -9.859375 C 5.195312 -9.378906 5.039062 -8.984375 4.8125 -8.671875 C 4.59375 -8.367188 4.128906 -8.21875 3.421875 -8.21875 C 2.984375 -8.21875 2.597656 -8.34375 2.265625 -8.59375 C 1.929688 -8.84375 1.765625 -9.210938 1.765625 -9.703125 C 1.765625 -10.671875 2.289062 -11.515625 3.34375 -12.234375 C 4.394531 -12.953125 6.007812 -13.3125 8.1875 -13.3125 C 10.476562 -13.3125 12.050781 -12.925781 12.90625 -12.15625 C 13.769531 -11.382812 14.203125 -10.351562 14.203125 -9.0625 L 14.203125 -4.125 C 14.203125 -3.5 14.21875 -3.039062 14.25 -2.75 C 14.28125 -2.457031 14.363281 -2.234375 14.5 -2.078125 C 14.644531 -1.929688 14.867188 -1.859375 15.171875 -1.859375 C 15.441406 -1.859375 15.675781 -2 15.875 -2.28125 C 16.082031 -2.5625 16.1875 -2.898438 16.1875 -3.296875 Z M 10.171875 -3.171875 L 10.171875 -7.046875 C 8.191406 -6.421875 6.929688 -5.804688 6.390625 -5.203125 C 5.859375 -4.609375 5.59375 -4.023438 5.59375 -3.453125 C 5.59375 -2.972656 5.738281 -2.585938 6.03125 -2.296875 C 6.320312 -2.003906 6.734375 -1.859375 7.265625 -1.859375 C 7.835938 -1.859375 8.34375 -1.976562 8.78125 -2.21875 C 9.21875 -2.457031 9.679688 -2.773438 10.171875 -3.171875 Z M 10.171875 -3.171875 "/>
</g>
<g id="glyph-0-11">
<path d="M 14.109375 -10.84375 C 14.109375 -10.238281 13.921875 -9.757812 13.546875 -9.40625 C 13.179688 -9.0625 12.75 -8.890625 12.25 -8.890625 C 11.65625 -8.890625 11.132812 -9.179688 10.6875 -9.765625 C 10.476562 -10.023438 10.304688 -10.210938 10.171875 -10.328125 C 10.035156 -10.441406 9.84375 -10.5 9.59375 -10.5 C 8.78125 -10.5 8.144531 -10.054688 7.6875 -9.171875 C 7.238281 -8.296875 7.015625 -7.382812 7.015625 -6.4375 L 7.015625 -3.71875 C 7.015625 -2.84375 7.125 -2.242188 7.34375 -1.921875 C 7.570312 -1.597656 8.164062 -1.4375 9.125 -1.4375 L 9.953125 -1.4375 L 9.953125 0 L 0.25 0 L 0.25 -1.4375 L 1.0625 -1.4375 C 1.9375 -1.4375 2.472656 -1.601562 2.671875 -1.9375 C 2.867188 -2.269531 2.96875 -2.863281 2.96875 -3.71875 L 2.96875 -8.28125 C 2.96875 -8.976562 2.894531 -9.476562 2.75 -9.78125 C 2.613281 -10.082031 2.363281 -10.28125 2 -10.375 C 1.632812 -10.476562 1.050781 -10.53125 0.25 -10.53125 L 0.25 -11.96875 L 6.34375 -13.3125 C 6.5 -12.78125 6.644531 -11.648438 6.78125 -9.921875 C 7.070312 -10.535156 7.453125 -11.097656 7.921875 -11.609375 C 8.398438 -12.117188 8.929688 -12.53125 9.515625 -12.84375 C 10.109375 -13.15625 10.710938 -13.3125 11.328125 -13.3125 C 12.179688 -13.3125 12.859375 -13.070312 13.359375 -12.59375 C 13.859375 -12.113281 14.109375 -11.53125 14.109375 -10.84375 Z M 14.109375 -10.84375 "/>
</g>
<g id="glyph-0-12">
<path d="M 18.109375 0 L 10.078125 0 L 10.078125 -1.4375 C 10.796875 -1.4375 11.289062 -1.5625 11.5625 -1.8125 C 11.832031 -2.070312 11.96875 -2.445312 11.96875 -2.9375 L 11.96875 -8.1875 C 11.96875 -8.707031 11.929688 -9.175781 11.859375 -9.59375 C 11.796875 -10.007812 11.617188 -10.382812 11.328125 -10.71875 C 11.035156 -11.0625 10.585938 -11.234375 9.984375 -11.234375 C 9.492188 -11.234375 8.992188 -11.097656 8.484375 -10.828125 C 7.984375 -10.566406 7.597656 -10.222656 7.328125 -9.796875 C 7.035156 -9.316406 6.847656 -8.851562 6.765625 -8.40625 C 6.691406 -7.96875 6.65625 -7.4375 6.65625 -6.8125 L 6.65625 -4.125 C 6.65625 -3.394531 6.679688 -2.859375 6.734375 -2.515625 C 6.796875 -2.179688 6.957031 -1.914062 7.21875 -1.71875 C 7.488281 -1.53125 7.929688 -1.4375 8.546875 -1.4375 L 8.546875 0 L 0.359375 0 L 0.359375 -1.4375 C 1.054688 -1.4375 1.566406 -1.507812 1.890625 -1.65625 C 2.222656 -1.800781 2.425781 -2.015625 2.5 -2.296875 C 2.582031 -2.585938 2.625 -3.0625 2.625 -3.71875 L 2.625 -16.828125 C 2.625 -17.609375 2.5 -18.128906 2.25 -18.390625 C 2 -18.660156 1.367188 -18.800781 0.359375 -18.8125 L 0.359375 -20.21875 L 6.65625 -21.5625 L 6.65625 -11.015625 C 7.269531 -11.660156 7.90625 -12.203125 8.5625 -12.640625 C 9.226562 -13.085938 10.148438 -13.3125 11.328125 -13.3125 C 11.867188 -13.3125 12.410156 -13.234375 12.953125 -13.078125 C 13.492188 -12.921875 13.976562 -12.691406 14.40625 -12.390625 C 14.84375 -12.085938 15.160156 -11.742188 15.359375 -11.359375 C 15.785156 -10.597656 16 -9.609375 16 -8.390625 L 16 -3.71875 C 16 -2.84375 16.109375 -2.242188 16.328125 -1.921875 C 16.554688 -1.597656 17.148438 -1.4375 18.109375 -1.4375 Z M 18.109375 0 "/>
</g>
<g id="glyph-0-13">
<path d="M 18.4375 0 L 10.34375 0 L 10.34375 -1.4375 C 10.957031 -1.4375 11.394531 -1.515625 11.65625 -1.671875 C 11.925781 -1.835938 12.09375 -2.078125 12.15625 -2.390625 C 12.21875 -2.703125 12.25 -3.21875 12.25 -3.9375 L 12.25 -8.359375 C 12.25 -9.242188 12.117188 -9.941406 11.859375 -10.453125 C 11.597656 -10.972656 11.066406 -11.234375 10.265625 -11.234375 C 9.171875 -11.234375 8.351562 -10.8125 7.8125 -9.96875 C 7.28125 -9.132812 7.015625 -8.171875 7.015625 -7.078125 L 7.015625 -3.578125 C 7.015625 -2.753906 7.132812 -2.191406 7.375 -1.890625 C 7.613281 -1.585938 8.128906 -1.4375 8.921875 -1.4375 L 8.921875 0 L 0.671875 0 L 0.671875 -1.4375 C 1.347656 -1.4375 1.847656 -1.492188 2.171875 -1.609375 C 2.492188 -1.734375 2.707031 -1.945312 2.8125 -2.25 C 2.914062 -2.5625 2.96875 -3.050781 2.96875 -3.71875 L 2.96875 -8.765625 C 2.96875 -9.492188 2.828125 -9.96875 2.546875 -10.1875 C 2.265625 -10.414062 1.640625 -10.53125 0.671875 -10.53125 L 0.671875 -11.96875 L 6.75 -13.3125 C 6.84375 -12.707031 6.890625 -12.144531 6.890625 -11.625 C 6.890625 -11.488281 6.882812 -11.367188 6.875 -11.265625 C 6.875 -11.171875 6.875 -11.0625 6.875 -10.9375 C 7.53125 -11.632812 8.210938 -12.203125 8.921875 -12.640625 C 9.628906 -13.085938 10.515625 -13.3125 11.578125 -13.3125 C 12.472656 -13.3125 13.273438 -13.148438 13.984375 -12.828125 C 14.703125 -12.503906 15.265625 -12.015625 15.671875 -11.359375 C 16.078125 -10.703125 16.28125 -9.910156 16.28125 -8.984375 L 16.28125 -3.71875 C 16.28125 -2.84375 16.394531 -2.242188 16.625 -1.921875 C 16.863281 -1.597656 17.46875 -1.4375 18.4375 -1.4375 Z M 18.4375 0 "/>
</g>
<g id="glyph-0-14">
<path d="M 16.953125 -6.078125 C 16.953125 -5.421875 16.8125 -4.722656 16.53125 -3.984375 C 16.25 -3.253906 15.820312 -2.550781 15.25 -1.875 C 14.6875 -1.207031 13.972656 -0.660156 13.109375 -0.234375 C 12.242188 0.179688 11.242188 0.390625 10.109375 0.390625 C 8.984375 0.390625 7.863281 0.144531 6.75 -0.34375 C 5.644531 -0.832031 4.707031 -1.5625 3.9375 -2.53125 C 3.601562 -1.757812 3.390625 -1.046875 3.296875 -0.390625 L 1.859375 -0.390625 L 1.859375 -7.640625 L 3.296875 -7.640625 C 3.554688 -6.597656 3.914062 -5.617188 4.375 -4.703125 C 4.832031 -3.785156 5.476562 -2.992188 6.3125 -2.328125 C 7.15625 -1.671875 8.1875 -1.34375 9.40625 -1.34375 C 10.46875 -1.34375 11.316406 -1.632812 11.953125 -2.21875 C 12.597656 -2.800781 12.921875 -3.535156 12.921875 -4.421875 C 12.921875 -4.921875 12.820312 -5.359375 12.625 -5.734375 C 12.425781 -6.109375 12.140625 -6.441406 11.765625 -6.734375 C 11.390625 -7.035156 10.875 -7.351562 10.21875 -7.6875 C 9.570312 -8.03125 8.832031 -8.390625 8 -8.765625 C 6.71875 -9.367188 5.664062 -9.976562 4.84375 -10.59375 C 4.019531 -11.207031 3.394531 -11.800781 2.96875 -12.375 C 2.550781 -12.957031 2.257812 -13.507812 2.09375 -14.03125 C 1.9375 -14.550781 1.859375 -15.078125 1.859375 -15.609375 C 1.859375 -16.554688 2.113281 -17.488281 2.625 -18.40625 C 3.132812 -19.332031 3.878906 -20.085938 4.859375 -20.671875 C 5.847656 -21.265625 6.988281 -21.5625 8.28125 -21.5625 C 9.269531 -21.5625 10.210938 -21.335938 11.109375 -20.890625 C 12.003906 -20.453125 12.78125 -19.847656 13.4375 -19.078125 C 13.625 -19.515625 13.796875 -20.128906 13.953125 -20.921875 L 15.421875 -20.921875 L 15.421875 -15.015625 L 13.953125 -15.015625 C 12.910156 -18.234375 11.097656 -19.84375 8.515625 -19.84375 C 7.578125 -19.84375 6.820312 -19.59375 6.25 -19.09375 C 5.6875 -18.601562 5.40625 -17.96875 5.40625 -17.1875 C 5.40625 -16.570312 5.582031 -16.035156 5.9375 -15.578125 C 6.289062 -15.128906 6.753906 -14.742188 7.328125 -14.421875 C 7.910156 -14.097656 8.847656 -13.632812 10.140625 -13.03125 C 11.703125 -12.289062 12.921875 -11.648438 13.796875 -11.109375 C 14.679688 -10.566406 15.425781 -9.882812 16.03125 -9.0625 C 16.644531 -8.238281 16.953125 -7.242188 16.953125 -6.078125 Z M 16.953125 -6.078125 "/>
</g>
<g id="glyph-0-15">
<path d="M 18.375 -0.09375 C 18.070312 -0.0703125 17.546875 -0.0390625 16.796875 0 C 16.046875 0.0507812 15.203125 0.117188 14.265625 0.203125 C 13.335938 0.296875 12.59375 0.398438 12.03125 0.515625 L 12.03125 -1.765625 C 10.6875 -0.222656 9.078125 0.546875 7.203125 0.546875 C 5.835938 0.546875 4.828125 0.253906 4.171875 -0.328125 C 3.515625 -0.910156 3.109375 -1.550781 2.953125 -2.25 C 2.796875 -2.957031 2.71875 -3.710938 2.71875 -4.515625 L 2.71875 -9.125 C 2.71875 -9.738281 2.679688 -10.1875 2.609375 -10.46875 C 2.535156 -10.757812 2.34375 -10.976562 2.03125 -11.125 C 1.71875 -11.28125 1.203125 -11.359375 0.484375 -11.359375 L 0.484375 -12.796875 L 6.75 -12.796875 L 6.75 -4.1875 C 6.75 -2.414062 7.429688 -1.53125 8.796875 -1.53125 C 9.578125 -1.53125 10.238281 -1.804688 10.78125 -2.359375 C 11.320312 -2.921875 11.738281 -3.457031 12.03125 -3.96875 L 12.03125 -9.125 C 12.03125 -9.769531 11.988281 -10.234375 11.90625 -10.515625 C 11.832031 -10.796875 11.632812 -11.003906 11.3125 -11.140625 C 10.988281 -11.285156 10.453125 -11.359375 9.703125 -11.359375 L 9.703125 -12.796875 L 16.0625 -12.796875 L 16.0625 -3.390625 C 16.0625 -2.898438 16.109375 -2.535156 16.203125 -2.296875 C 16.296875 -2.054688 16.507812 -1.867188 16.84375 -1.734375 C 17.175781 -1.609375 17.6875 -1.539062 18.375 -1.53125 Z M 18.375 -0.09375 "/>
</g>
<g id="glyph-0-16">
<path d="M 11.390625 -2.78125 C 10.828125 -1.601562 10.171875 -0.757812 9.421875 -0.25 C 8.671875 0.257812 7.789062 0.515625 6.78125 0.515625 C 5.550781 0.515625 4.644531 0.265625 4.0625 -0.234375 C 3.476562 -0.734375 3.117188 -1.289062 2.984375 -1.90625 C 2.847656 -2.53125 2.78125 -3.226562 2.78125 -4 L 2.78125 -11.359375 L 0.421875 -11.359375 L 0.421875 -12.796875 C 1.410156 -12.796875 2.269531 -12.984375 3 -13.359375 C 3.726562 -13.734375 4.300781 -14.238281 4.71875 -14.875 C 5.144531 -15.507812 5.414062 -16.191406 5.53125 -16.921875 L 6.8125 -16.921875 L 6.8125 -12.796875 L 11.234375 -12.796875 L 11.234375 -11.359375 L 6.8125 -11.359375 L 6.8125 -3.90625 C 6.8125 -3 6.867188 -2.34375 6.984375 -1.9375 C 7.109375 -1.539062 7.40625 -1.34375 7.875 -1.34375 C 8.375 -1.34375 8.785156 -1.535156 9.109375 -1.921875 C 9.429688 -2.316406 9.742188 -2.804688 10.046875 -3.390625 Z M 11.390625 -2.78125 "/>
</g>
<g id="glyph-0-17">
<path d="M 17.765625 -6.5 C 17.765625 -5.5 17.582031 -4.5625 17.21875 -3.6875 C 16.851562 -2.820312 16.335938 -2.070312 15.671875 -1.4375 C 15.015625 -0.800781 14.257812 -0.316406 13.40625 0.015625 C 12.5625 0.347656 11.664062 0.515625 10.71875 0.515625 C 9.601562 0.515625 8.644531 0.300781 7.84375 -0.125 C 7.039062 -0.5625 6.378906 -1.117188 5.859375 -1.796875 C 4.898438 -0.835938 4.207031 -0.0664062 3.78125 0.515625 L 2.5625 0.515625 L 2.5625 -16.796875 C 2.5625 -17.390625 2.488281 -17.820312 2.34375 -18.09375 C 2.207031 -18.375 1.972656 -18.550781 1.640625 -18.625 C 1.316406 -18.707031 0.8125 -18.757812 0.125 -18.78125 L 0.125 -20.1875 L 6.59375 -21.5625 L 6.59375 -11.453125 C 7.125 -11.953125 7.738281 -12.382812 8.4375 -12.75 C 9.144531 -13.125 10.066406 -13.3125 11.203125 -13.3125 C 12.265625 -13.3125 13.207031 -13.117188 14.03125 -12.734375 C 14.863281 -12.347656 15.554688 -11.828125 16.109375 -11.171875 C 16.660156 -10.515625 17.070312 -9.785156 17.34375 -8.984375 C 17.625 -8.179688 17.765625 -7.351562 17.765625 -6.5 Z M 13.4375 -6.625 C 13.4375 -7.925781 13.21875 -9.078125 12.78125 -10.078125 C 12.351562 -11.078125 11.503906 -11.578125 10.234375 -11.578125 C 9.773438 -11.578125 9.320312 -11.484375 8.875 -11.296875 C 8.4375 -11.117188 8.023438 -10.875 7.640625 -10.5625 C 7.265625 -10.25 6.914062 -9.882812 6.59375 -9.46875 L 6.59375 -3.109375 C 7.21875 -2.296875 7.835938 -1.773438 8.453125 -1.546875 C 9.078125 -1.328125 9.628906 -1.21875 10.109375 -1.21875 C 10.984375 -1.21875 11.671875 -1.503906 12.171875 -2.078125 C 12.671875 -2.660156 13.003906 -3.351562 13.171875 -4.15625 C 13.347656 -4.957031 13.4375 -5.78125 13.4375 -6.625 Z M 13.4375 -6.625 "/>
</g>
<g id="glyph-0-18">
<path d="M 18.90625 -0.1875 C 16.695312 -0.09375 14.679688 0.140625 12.859375 0.515625 C 12.710938 0.203125 12.617188 -0.34375 12.578125 -1.125 C 11.242188 -0.03125 9.78125 0.515625 8.1875 0.515625 C 6.957031 0.515625 5.816406 0.195312 4.765625 -0.4375 C 3.722656 -1.070312 2.890625 -1.9375 2.265625 -3.03125 C 1.648438 -4.132812 1.34375 -5.332031 1.34375 -6.625 C 1.34375 -7.425781 1.476562 -8.222656 1.75 -9.015625 C 2.019531 -9.804688 2.441406 -10.53125 3.015625 -11.1875 C 3.597656 -11.851562 4.316406 -12.375 5.171875 -12.75 C 6.023438 -13.125 7 -13.3125 8.09375 -13.3125 C 8.894531 -13.3125 9.582031 -13.210938 10.15625 -13.015625 C 10.726562 -12.816406 11.1875 -12.585938 11.53125 -12.328125 C 11.875 -12.078125 12.222656 -11.773438 12.578125 -11.421875 L 12.578125 -16.546875 C 12.578125 -17.242188 12.519531 -17.742188 12.40625 -18.046875 C 12.289062 -18.347656 12.070312 -18.539062 11.75 -18.625 C 11.4375 -18.707031 10.921875 -18.757812 10.203125 -18.78125 L 10.203125 -20.21875 L 16.609375 -21.5625 L 16.609375 -4.0625 C 16.609375 -3.3125 16.640625 -2.789062 16.703125 -2.5 C 16.773438 -2.207031 16.96875 -1.992188 17.28125 -1.859375 C 17.59375 -1.734375 18.132812 -1.65625 18.90625 -1.625 Z M 12.578125 -3.140625 L 12.578125 -9.46875 C 12.140625 -10 11.617188 -10.484375 11.015625 -10.921875 C 10.410156 -11.359375 9.691406 -11.578125 8.859375 -11.578125 C 8.347656 -11.578125 7.867188 -11.4375 7.421875 -11.15625 C 6.972656 -10.875 6.613281 -10.515625 6.34375 -10.078125 C 5.882812 -9.359375 5.65625 -8.144531 5.65625 -6.4375 C 5.65625 -4.707031 5.976562 -3.40625 6.625 -2.53125 C 7.28125 -1.65625 8.09375 -1.21875 9.0625 -1.21875 C 9.757812 -1.21875 10.410156 -1.390625 11.015625 -1.734375 C 11.617188 -2.078125 12.140625 -2.546875 12.578125 -3.140625 Z M 12.578125 -3.140625 "/>
</g>
<g id="glyph-0-19">
<path d="M 19.8125 -6.96875 L 19.640625 0 L 0.765625 0 L 0.765625 -1.4375 C 2.066406 -1.4375 2.90625 -1.625 3.28125 -2 C 3.65625 -2.375 3.84375 -3.019531 3.84375 -3.9375 L 3.84375 -17.25 C 3.84375 -17.851562 3.78125 -18.320312 3.65625 -18.65625 C 3.539062 -19 3.257812 -19.265625 2.8125 -19.453125 C 2.375 -19.648438 1.691406 -19.75 0.765625 -19.75 L 0.765625 -21.1875 L 18.34375 -21.1875 L 18.625 -15.6875 L 17.1875 -15.6875 C 16.863281 -16.90625 16.488281 -17.773438 16.0625 -18.296875 C 15.644531 -18.828125 15.171875 -19.148438 14.640625 -19.265625 C 14.117188 -19.390625 13.332031 -19.453125 12.28125 -19.453125 L 8.3125 -19.453125 L 8.3125 -11.96875 L 10.46875 -11.96875 C 11.207031 -11.96875 11.757812 -12.03125 12.125 -12.15625 C 12.488281 -12.289062 12.742188 -12.539062 12.890625 -12.90625 C 13.035156 -13.269531 13.132812 -13.84375 13.1875 -14.625 L 14.6875 -14.625 L 14.6875 -7.578125 L 13.25 -7.578125 C 13.207031 -8.359375 13.101562 -8.929688 12.9375 -9.296875 C 12.769531 -9.671875 12.503906 -9.921875 12.140625 -10.046875 C 11.785156 -10.171875 11.238281 -10.234375 10.5 -10.234375 L 8.3125 -10.234375 L 8.3125 -5.25 C 8.3125 -4.414062 8.332031 -3.804688 8.375 -3.421875 C 8.414062 -3.035156 8.523438 -2.710938 8.703125 -2.453125 C 8.890625 -2.203125 9.1875 -2.019531 9.59375 -1.90625 C 10.007812 -1.789062 10.597656 -1.734375 11.359375 -1.734375 L 13.0625 -1.734375 C 13.78125 -1.734375 14.460938 -1.820312 15.109375 -2 C 15.765625 -2.1875 16.40625 -2.65625 17.03125 -3.40625 C 17.65625 -4.164062 18.09375 -5.351562 18.34375 -6.96875 Z M 19.8125 -6.96875 "/>
</g>
<g id="glyph-0-20">
<path d="M 30.171875 0 L 21.5 0 L 21.5 -1.4375 C 22.21875 -1.4375 22.726562 -1.515625 23.03125 -1.671875 C 23.332031 -1.835938 23.515625 -2.0625 23.578125 -2.34375 C 23.648438 -2.632812 23.6875 -3.09375 23.6875 -3.71875 L 23.6875 -8.453125 C 23.6875 -9.140625 23.53125 -9.773438 23.21875 -10.359375 C 22.914062 -10.941406 22.21875 -11.234375 21.125 -11.234375 C 20.34375 -11.234375 19.664062 -11.035156 19.09375 -10.640625 C 18.519531 -10.253906 18.078125 -9.71875 17.765625 -9.03125 C 17.460938 -8.351562 17.3125 -7.59375 17.3125 -6.75 L 17.3125 -3.71875 C 17.3125 -3.070312 17.347656 -2.601562 17.421875 -2.3125 C 17.503906 -2.03125 17.707031 -1.8125 18.03125 -1.65625 C 18.351562 -1.507812 18.878906 -1.4375 19.609375 -1.4375 L 19.609375 0 L 11.109375 0 L 11.109375 -1.4375 C 11.804688 -1.4375 12.304688 -1.515625 12.609375 -1.671875 C 12.921875 -1.828125 13.109375 -2.050781 13.171875 -2.34375 C 13.242188 -2.632812 13.28125 -3.09375 13.28125 -3.71875 L 13.28125 -8.640625 C 13.28125 -9.734375 12.992188 -10.4375 12.421875 -10.75 C 11.847656 -11.070312 11.3125 -11.234375 10.8125 -11.234375 C 10.144531 -11.234375 9.5 -11.070312 8.875 -10.75 C 8.25 -10.425781 7.773438 -10.007812 7.453125 -9.5 C 7.222656 -9.125 7.070312 -8.753906 7 -8.390625 C 6.9375 -8.023438 6.90625 -7.566406 6.90625 -7.015625 L 6.90625 -3.71875 C 6.90625 -3.070312 6.941406 -2.601562 7.015625 -2.3125 C 7.097656 -2.03125 7.304688 -1.8125 7.640625 -1.65625 C 7.972656 -1.507812 8.5 -1.4375 9.21875 -1.4375 L 9.21875 0 L 0.671875 0 L 0.671875 -1.4375 C 1.378906 -1.4375 1.882812 -1.507812 2.1875 -1.65625 C 2.5 -1.8125 2.691406 -2.035156 2.765625 -2.328125 C 2.835938 -2.617188 2.875 -3.082031 2.875 -3.71875 L 2.875 -9.0625 C 2.875 -10.039062 2.242188 -10.53125 0.984375 -10.53125 L 0.1875 -10.53125 L 0.1875 -11.96875 L 6.78125 -13.3125 C 6.863281 -12.757812 6.90625 -11.96875 6.90625 -10.9375 C 7.644531 -11.675781 8.425781 -12.253906 9.25 -12.671875 C 10.082031 -13.097656 11.039062 -13.3125 12.125 -13.3125 C 13.132812 -13.3125 14.101562 -13.113281 15.03125 -12.71875 C 15.957031 -12.320312 16.65625 -11.59375 17.125 -10.53125 C 18.070312 -11.65625 18.984375 -12.398438 19.859375 -12.765625 C 20.734375 -13.128906 21.632812 -13.3125 22.5625 -13.3125 C 24.207031 -13.3125 25.476562 -12.921875 26.375 -12.140625 C 27.269531 -11.359375 27.71875 -10.160156 27.71875 -8.546875 L 27.71875 -3.71875 C 27.71875 -3.132812 27.742188 -2.691406 27.796875 -2.390625 C 27.859375 -2.097656 28.023438 -1.863281 28.296875 -1.6875 C 28.578125 -1.519531 29.019531 -1.4375 29.625 -1.4375 L 30.171875 -1.4375 Z M 30.171875 0 "/>
</g>
</g>
</defs>
<path fill-rule="nonzero" fill="rgb(0.784302%, 49.803162%, 46.665955%)" fill-opacity="1" d="M 291.660156 619.328125 L 221.28125 618.816406 L 222.054688 548.4375 "/>
<path fill-rule="nonzero" fill="rgb(68.235779%, 80.784607%, 21.568298%)" fill-opacity="1" d="M 244.617188 459.1875 L 312.007812 527.179688 L 378.804688 595.816406 L 379.710938 459.429688 Z M 389.480469 619.230469 L 305.128906 533.9375 L 221.28125 449.335938 L 389.628906 449.511719 "/>
<path fill-rule="nonzero" fill="rgb(12.940979%, 65.098572%, 64.31427%)" fill-opacity="1" d="M 244.617188 508.585938 L 287.636719 551.988281 L 330.289062 595.816406 L 331.070312 509.363281 Z M 339.71875 619.328125 L 280.757812 558.746094 L 221.28125 498.730469 L 340.796875 499.8125 "/>
<path fill-rule="nonzero" fill="rgb(0%, 45.489502%, 52.157593%)" fill-opacity="1" d="M 485.597656 482.117188 C 485.597656 468.679688 476.59375 461.023438 459.398438 461.023438 L 436.558594 461.023438 L 436.558594 503.210938 L 459.398438 503.210938 C 476.59375 503.210938 485.597656 495.550781 485.597656 482.117188 M 499.03125 482.117188 C 499.03125 502.539062 484.253906 514.898438 459.800781 514.898438 L 436.558594 514.898438 L 436.558594 543.382812 L 423.121094 543.382812 L 423.121094 449.332031 L 459.800781 449.332031 C 484.253906 449.332031 499.03125 461.695312 499.03125 482.117188 "/>
<path fill-rule="nonzero" fill="rgb(0%, 45.489502%, 52.157593%)" fill-opacity="1" d="M 581.261719 482.117188 C 581.261719 468.679688 572.257812 461.023438 555.0625 461.023438 L 532.21875 461.023438 L 532.21875 503.34375 L 555.0625 503.34375 C 572.257812 503.34375 581.261719 495.550781 581.261719 482.117188 M 581.664062 543.382812 L 561.375 514.496094 C 559.492188 514.628906 557.480469 514.765625 555.464844 514.765625 L 532.21875 514.765625 L 532.21875 543.382812 L 518.785156 543.382812 L 518.785156 449.332031 L 555.464844 449.332031 C 579.917969 449.332031 594.695312 461.695312 594.695312 482.117188 C 594.695312 496.625 587.171875 507.105469 574.003906 511.808594 L 596.308594 543.382812 "/>
<path fill-rule="nonzero" fill="rgb(0%, 45.489502%, 52.157593%)" fill-opacity="1" d="M 616.460938 543.382812 L 629.898438 543.382812 L 629.898438 449.335938 L 616.460938 449.335938 Z M 616.460938 543.382812 "/>
<path fill-rule="nonzero" fill="rgb(0%, 45.489502%, 52.157593%)" fill-opacity="1" d="M 649.515625 533.710938 L 654.484375 523.230469 C 661.472656 529.546875 673.429688 534.113281 685.519531 534.113281 C 701.777344 534.113281 708.765625 527.796875 708.765625 519.601562 C 708.765625 496.628906 651.796875 511.136719 651.796875 476.203125 C 651.796875 461.695312 663.085938 449.335938 687.804688 449.335938 C 698.820312 449.335938 710.242188 452.289062 718.035156 457.664062 L 713.601562 468.410156 C 705.40625 463.171875 696.132812 460.753906 687.804688 460.753906 C 671.816406 460.753906 664.964844 467.472656 664.964844 475.667969 C 664.964844 498.644531 721.929688 484.265625 721.929688 518.796875 C 721.929688 533.171875 710.375 545.53125 685.519531 545.53125 C 671.144531 545.53125 657.035156 540.695312 649.515625 533.710938 "/>
<path fill-rule="nonzero" fill="rgb(0%, 45.489502%, 52.157593%)" fill-opacity="1" d="M 809.800781 531.691406 L 809.800781 543.382812 L 741.546875 543.382812 L 741.546875 449.335938 L 807.921875 449.335938 L 807.921875 461.023438 L 754.984375 461.023438 L 754.984375 489.910156 L 802.140625 489.910156 L 802.140625 501.328125 L 754.984375 501.328125 L 754.984375 531.691406 "/>
<g fill="rgb(0.784302%, 49.01886%, 46.273804%)" fill-opacity="1">
<use xlink:href="#glyph-0-0" x="420.984" y="584.981"/>
</g>
<g fill="rgb(0.784302%, 49.01886%, 46.273804%)" fill-opacity="1">
<use xlink:href="#glyph-0-1" x="438.168" y="584.981"/>
<use xlink:href="#glyph-0-2" x="454.744" y="584.981"/>
<use xlink:href="#glyph-0-3" x="463.32" y="584.981"/>
<use xlink:href="#glyph-0-4" x="471.896" y="584.981"/>
<use xlink:href="#glyph-0-5" x="486.136" y="584.981"/>
<use xlink:href="#glyph-0-6" x="501.688" y="584.981"/>
<use xlink:href="#glyph-0-7" x="508.248" y="584.981"/>
</g>
<g fill="rgb(0.784302%, 49.01886%, 46.273804%)" fill-opacity="1">
<use xlink:href="#glyph-0-8" x="529.915344" y="584.981"/>
<use xlink:href="#glyph-0-9" x="544.795344" y="584.981"/>
<use xlink:href="#glyph-0-8" x="558.683344" y="584.981"/>
<use xlink:href="#glyph-0-10" x="573.563344" y="584.981"/>
<use xlink:href="#glyph-0-11" x="589.467344" y="584.981"/>
</g>
<g fill="rgb(0.784302%, 49.01886%, 46.273804%)" fill-opacity="1">
<use xlink:href="#glyph-0-4" x="601.464243" y="584.981"/>
<use xlink:href="#glyph-0-12" x="615.704243" y="584.981"/>
<use xlink:href="#glyph-0-6" x="632.920243" y="584.981"/>
<use xlink:href="#glyph-0-3" x="639.480243" y="584.981"/>
<use xlink:href="#glyph-0-13" x="648.056243" y="584.981"/>
<use xlink:href="#glyph-0-6" x="665.624243" y="584.981"/>
<use xlink:href="#glyph-0-14" x="672.184243" y="584.981"/>
<use xlink:href="#glyph-0-15" x="689.080243" y="584.981"/>
<use xlink:href="#glyph-0-9" x="706.648243" y="584.981"/>
<use xlink:href="#glyph-0-16" x="720.536243" y="584.981"/>
<use xlink:href="#glyph-0-10" x="730.776243" y="584.981"/>
<use xlink:href="#glyph-0-3" x="746.680243" y="584.981"/>
<use xlink:href="#glyph-0-13" x="755.256243" y="584.981"/>
<use xlink:href="#glyph-0-10" x="772.824243" y="584.981"/>
</g>
<g fill="rgb(0.784302%, 49.01886%, 46.273804%)" fill-opacity="1">
<use xlink:href="#glyph-0-17" x="788.148995" y="584.981"/>
<use xlink:href="#glyph-0-3" x="805.716995" y="584.981"/>
<use xlink:href="#glyph-0-2" x="814.292995" y="584.981"/>
<use xlink:href="#glyph-0-3" x="822.868995" y="584.981"/>
<use xlink:href="#glyph-0-16" x="831.444995" y="584.981"/>
<use xlink:href="#glyph-0-5" x="841.684995" y="584.981"/>
</g>
<g fill="rgb(0.784302%, 49.01886%, 46.273804%)" fill-opacity="1">
<use xlink:href="#glyph-0-10" x="420.984" y="614.965"/>
<use xlink:href="#glyph-0-13" x="436.888" y="614.965"/>
<use xlink:href="#glyph-0-18" x="454.456" y="614.965"/>
<use xlink:href="#glyph-0-6" x="472.344" y="614.965"/>
<use xlink:href="#glyph-0-19" x="478.904" y="614.965"/>
<use xlink:href="#glyph-0-4" x="498.456" y="614.965"/>
<use xlink:href="#glyph-0-1" x="512.696" y="614.965"/>
<use xlink:href="#glyph-0-13" x="529.272" y="614.965"/>
<use xlink:href="#glyph-0-1" x="546.84" y="614.965"/>
<use xlink:href="#glyph-0-20" x="563.416" y="614.965"/>
<use xlink:href="#glyph-0-3" x="592.312" y="614.965"/>
<use xlink:href="#glyph-0-4" x="600.888" y="614.965"/>
<use xlink:href="#glyph-0-9" x="615.128" y="614.965"/>
</g>
</svg>
